<?xml version="1.0" encoding="utf-8"?>
<!-- Generator: Adobe Illustrator 22.0.1, SVG Export Plug-In . SVG Version: 6.00 Build 0)  -->
<svg version="1.1" id="Layer_1" xmlns="http://www.w3.org/2000/svg" xmlns:xlink="http://www.w3.org/1999/xlink" x="0px" y="0px"
	 viewBox="0 0 500 500" style="enable-background:new 0 0 500 500;" xml:space="preserve">
<style type="text/css">
	.st0{fill:none;stroke:#FFFFFF;stroke-width:40;stroke-miterlimit:10;}
	.st1{fill:#FFFFFF;}
	.st2{display:none;fill:#FFFFFF;fill-opacity:0.67;}
</style>
<g id="Layer_1-2">
	<ellipse class="st0" cx="252.4" cy="246.6" rx="116" ry="113.3"/>
	<path class="st1" d="M252.5,77.6L252.5,77.6c-3.2,16.2-13,30.3-27,39c2.9,13.8,13.9,24,26.9,24s24-10.3,26.9-24.1
		C265.3,107.8,255.6,93.7,252.5,77.6z"/>
	<path class="st1" d="M252.3,416.6L252.3,416.6c3.2-16.2,13-30.3,27-39c-2.9-13.8-13.9-24-26.9-24s-24,10.3-26.9,24.1
		C239.5,386.4,249.2,400.5,252.3,416.6z"/>
	<path class="st1" d="M79.9,247.1L79.9,247.1c16.2,3.2,30.3,12.9,39,26.9c13.8-3,24-13.9,24-27s-10.3-23.9-24.2-26.8
		C110.1,234.2,96,243.9,79.9,247.1z"/>
	<path class="st1" d="M424.9,246.6L424.9,246.6c-16.2-3.2-30.3-12.9-39-26.9c-13.8,3-24,13.9-24,27s10.3,24,24.2,26.9
		C394.7,259.5,408.8,249.8,424.9,246.6z"/>
</g>
<polygon class="st2" points="250,466.2 141.9,437.2 62.8,358.1 33.8,250 62.8,141.9 141.9,62.8 250,33.8 358.1,62.8 437.2,141.9 
	466.2,250 437.2,358.1 358.1,437.2 "/>
<g>
	<polygon class="st1" points="299.3,248.9 303.2,245 302,243.7 298.1,247.6 285.1,234.6 289,230.7 287.6,229.4 283.8,233.3 
		270.8,220.3 274.7,216.4 273.4,215.2 269.5,219.1 256.5,206.1 269.5,193.1 325.3,248.9 312.3,261.9 	"/>
	<path class="st1" d="M251.5,232.5c5,0,9.2,4.1,9.2,9.2V306c0,5-4.1,9.2-9.2,9.2c-5,0-9.2-4.1-9.2-9.2v-64.2
		C242.3,236.7,246.4,232.5,251.5,232.5z"/>
	<g>
		
			<rect x="250.1" y="175.3" transform="matrix(0.7071 -0.7071 0.7071 0.7071 -55.8494 234.1507)" class="st1" width="9.2" height="18.4"/>
		
			<rect x="187.8" y="206.4" transform="matrix(0.7071 -0.7071 0.7071 0.7071 -86.9518 221.2241)" class="st1" width="71.6" height="18.4"/>
		<polygon class="st1" points="185.9,253.2 189.2,237 202.2,250 		"/>
	</g>
</g>
</svg>
