<?xml version="1.0" encoding="utf-8"?>
<!-- Generator: Adobe Illustrator 22.0.1, SVG Export Plug-In . SVG Version: 6.00 Build 0)  -->
<svg version="1.1" xmlns="http://www.w3.org/2000/svg" xmlns:xlink="http://www.w3.org/1999/xlink" x="0px" y="0px"
	 viewBox="0 0 380 380" style="enable-background:new 0 0 380 380;" xml:space="preserve">
<style type="text/css">
	.st0{fill:#D72335;}
	.st1{fill:none;stroke:#FFFFFF;stroke-width:40;stroke-miterlimit:10;}
	.st2{fill:#FFFFFF;}
	.st3{display:none;fill:#FFFFFF;fill-opacity:0.67;}
</style>
<g id="bg">
	<rect class="st0" width="380" height="380"/>
</g>
<g id="Layer_1">
	<g id="Layer_1-2_2_">
		<ellipse class="st1" cx="188.4" cy="189.5" rx="116" ry="113.3"/>
		<path class="st2" d="M188.5,20.5L188.5,20.5c-3.2,16.2-13,30.3-27,39c2.9,13.8,13.9,24,26.9,24s24-10.3,26.9-24.1
			C201.3,50.7,191.6,36.6,188.5,20.5z"/>
		<path class="st2" d="M188.3,359.5L188.3,359.5c3.2-16.2,13-30.3,27-39c-2.9-13.8-13.9-24-26.9-24s-24,10.3-26.9,24.1
			C175.5,329.3,185.2,343.4,188.3,359.5z"/>
		<path class="st2" d="M15.9,190L15.9,190c16.2,3.2,30.3,12.9,39,26.9c13.8-3,24-13.9,24-27S68.6,166,54.7,163.1
			C46.1,177.1,32,186.8,15.9,190z"/>
		<path class="st2" d="M360.9,189.5L360.9,189.5c-16.2-3.2-30.3-12.9-39-26.9c-13.8,3-24,13.9-24,27s10.3,24,24.2,26.9
			C330.7,202.4,344.8,192.7,360.9,189.5z"/>
	</g>
	<polygon class="st3" points="186,409.1 77.9,380.1 -1.2,301 -30.2,192.9 -1.2,84.8 77.9,5.7 186,-23.3 294.1,5.7 373.2,84.8 
		402.2,192.9 373.2,301 294.1,380.1 	"/>
	<g>
		<polygon class="st2" points="235.3,191.8 239.2,187.9 238,186.6 234.1,190.5 221.1,177.5 225,173.6 223.6,172.3 219.8,176.2 
			206.8,163.2 210.7,159.3 209.4,158.1 205.5,162 192.5,149 205.5,136 261.3,191.8 248.3,204.8 		"/>
		<path class="st2" d="M187.5,175.4c5,0,9.2,4.1,9.2,9.2v64.3c0,5-4.1,9.2-9.2,9.2c-5,0-9.2-4.1-9.2-9.2v-64.2
			C178.3,179.6,182.4,175.4,187.5,175.4z"/>
		<g>
			
				<rect x="186.1" y="118.2" transform="matrix(0.7071 -0.7071 0.7071 0.7071 -34.222 172.1357)" class="st2" width="9.2" height="18.4"/>
			
				<rect x="123.8" y="149.2" transform="matrix(0.7071 -0.7071 0.7071 0.7071 -65.2909 159.2388)" class="st2" width="71.6" height="18.4"/>
			<polygon class="st2" points="121.9,196.1 125.2,179.9 138.2,192.9 			"/>
		</g>
	</g>
</g>
</svg>
